# AST/ASF file generated using VICON BodyLanguage
# -----------------------------------------------
:version 1.10
:name VICON
:units
  mass 1.0
  length 0.45
  angle deg
:documentation
   .ast/.asf automatically generated from VICON data using
   VICON BodyBuilder and BodyLanguage model FoxedUp or BRILLIANT.MOD
:root
   order TX TY TZ RX RY RZ
   axis XYZ
   position 0 0 0  
   orientation 0 0 0 
:bonedata
  begin
     id 1 
     name lhipjoint
     direction 0.588788 -0.725889 0.355548 
     length 2.37778 
     axis 0 0 0  XYZ
  end
  begin
     id 2 
     name lfemur
     direction 0.34202 -0.939693 0  
     length 6.86393  
     axis 0 0 20  XYZ
    dof rx ry rz
    limits (-160.0 20.0)
           (-70.0 70.0)
           (-60.0 70.0)
  end
  begin
     id 3 
     name ltibia
     direction 0.34202 -0.939693 0   
     length 7.32851   
     axis 0 0 20   XYZ
    dof rx
    limits (-10.0 170.0)
  end
  begin
     id 4 
     name lfoot
     direction 0.0626533 -0.172138 0.983078   
     length 1.98929   
     axis -90 7.62852e-016 20   XYZ
    dof rx rz
    limits (-45.0 90.0)
           (-70.0 20.0)
  end
  begin
     id 5 
     name ltoes
     direction 1.53647e-011 -4.21734e-011 1   
     length 1.00479   
     axis -90 7.62852e-016 20   XYZ
    dof rx
    limits (-90.0 20.0)
  end
  begin
     id 6 
     name rhipjoint
     direction -0.59141 -0.724168 0.354705   
     length 2.38343  
     axis 0 0 0  XYZ 
  end
  begin
     id 7 
     name rfemur
     direction -0.34202 -0.939693 0   
     length 6.95589   
     axis 0 0 -20   XYZ
    dof rx ry rz
    limits (-160.0 20.0)
           (-70.0 70.0)
           (-70.0 60.0)
  end
  begin
     id 8 
     name rtibia
     direction -0.34202 -0.939693 0   
     length 7.32327   
     axis 0 0 -20   XYZ
    dof rx
    limits (-10.0 170.0)
 end
 begin
     id 9 
     name rfoot
     direction -0.0660461 -0.18146 0.981178   
     length 1.85272  
     axis -90 -7.62852e-016 -20   XYZ
    dof rx rz
    limits (-45.0 90.0)
           (-20.0 70.0)
  end
  begin
     id 10 
     name rtoes
     direction -1.53586e-011 -4.21988e-011 1   
     length 0.93746   
     axis -90 -7.62852e-016 -20   XYZ
    dof rx
    limits (-90.0 20.0)
  end
  begin
     id 11 
     name lowerback
     direction -0.0107982 0.991059 0.13299   
     length 1.98691   
     axis 0 0 0   XYZ
    dof rx ry rz
    limits (-20.0 45.0)
           (-30.0 30.0)
           (-30.0 30.0)
  end
  begin
     id 12 
     name upperback
     direction 0.0076296 0.999916 0.0104576   
     length 1.99501   
     axis 0 0 0   XYZ
    dof rx ry rz
    limits (-20.0 45.0)
           (-30.0 30.0)
           (-30.0 30.0)
  end
  begin
     id 13 
     name thorax
     direction 0.01176 0.998615 -0.0512909   
     length 2.03144   
     axis 0 0 0   XYZ
    dof rx ry rz
    limits (-20.0 45.0)
           (-30.0 30.0)
           (-30.0 30.0)
  end
  begin
     id 14 
     name lowerneck
     direction -0.0171909 0.999644 0.0204011   
     length 1.71818   
     axis 0 0 0   XYZ
    dof rx ry rz
    limits (-20.0 45.0)
           (-30.0 30.0)
           (-30.0 30.0)
  end
  begin
     id 15 
     name upperneck
     direction 0.0250902 0.997482 -0.0663316   
     length 1.66199   
     axis 0 0 0   XYZ
    dof rx ry rz
    limits (-20.0 45.0)
           (-30.0 30.0)
           (-30.0 30.0)
  end
  begin
     id 16
     name head
     direction 0.00881535 0.99956 -0.0283365  
     length 1.81545  
     axis 0 0 0   XYZ
    dof rx ry rz
    limits (-20.0 45.0)
           (-30.0 30.0)
           (-30.0 30.0)
  end
  begin
     id 17 
     name lclavicle
     direction 0.840411 0.486876 -0.238035  
     length 3.30409  
     axis 0 0 0   XYZ
    dof ry rz
    limits (-20.0 10.0)
           (0.0 20.0)
  end
  begin
     id 18 
     name lhumerus
     direction 1 -4.48977e-011 -5.16239e-027   
     length 4.62672   
     axis 180 -30 -90   XYZ
    dof rx ry rz
    limits (-60.0 90.0)
           (-90.0 90.0)
           (-90.0 90.0)
  end
  begin
     id 19
     name lradius
     direction 1 -4.48977e-011 -8.71171e-027   
     length 3.11018   
     axis 180 -30 -90   XYZ
    dof rx
    limits (-10.0 170.0)
  end
  begin
     id 20
     name lwrist
     direction 1 -4.48912e-011 -1.03764e-026   
     length 1.55509   
     axis 9.09556e-015 90 90   XYZ
    dof ry
    limits (-180.0 0.0)
 end
  begin
     id 21 
     name lhand
     direction 1 -4.49072e-011 -2.07528e-026   
     length 0.743834   
     axis 1.3242e-014 90 90   XYZ
    dof rx rz
    limits (-90.0 90.0)
           (-45.0 45.0)
  end
  begin
     id 22 
     name lfingers
     direction 1 -4.48909e-011 -4.15056e-026   
     length 0.599698   
     axis 2.64841e-014 90 90   XYZ
    dof rx
    limits (0.0 90.0)
  end
  begin
     id 23
     name lthumb
     direction 0.707107 -6.35013e-011 0.707107   
     length 0.86105   
     axis -90 45 2.85299e-015   XYZ
    dof rx rz
    limits (-45.0 45.0)
           (-45.0 45.0)
  end
  begin
     id 24 
     name rclavicle
     direction -0.835208 0.500237 -0.228452   
     length 3.2716  
     axis 0 0 0   XYZ 
    dof ry rz
    limits (-10.0 20.0)
           (-20.0 0.0)
  end
  begin
     id 25 
     name rhumerus
     direction -1 -4.48978e-011 -5.1953e-028  
     length 4.55919   
     axis 180 30 90   XYZ
    dof rx ry rz
    limits (-90.0 60.0)
           (-90.0 90.0)
           (-90.0 90.0)
  end
  begin
     id 26 
     name rradius
     direction -1 -4.48961e-011 -5.99546e-027   
     length 3.22748   
     axis 180 30 90   XYZ
    dof rx
    limits (-10.0 170.0)
  end
  begin
     id 27 
     name rwrist
     direction -1 -4.48986e-011 -1.03764e-026   
     length 1.61374   
     axis 9.09556e-015 -90 -90   XYZ
    dof ry
    limits (-180.0 0.0)
  end
  begin
     id 28
     name rhand
     direction -1 -4.4899e-011 -2.07528e-026   
     length 0.700882   
     axis 1.3242e-014 -90 -90   XYZ
    dof rx rz
    limits (-90.0 90.0)
           (-45.0 45.0)
  end
  begin
     id 29
     name rfingers
     direction -1 -4.48991e-011 -4.15056e-026   
     length 0.565069   
     axis 2.64841e-014 -90 -90   XYZ
    dof rx
    limits (0.0 90.0)
  end
  begin
     id 30
     name rthumb
     direction -0.707107 -6.34804e-011 0.707107   
     length 0.811329   
     axis -90 -45 -2.85299e-015   XYZ
    dof rx rz
    limits (-45.0 45.0)
           (-45.0 45.0)
  end
:hierarchy
  begin
    root lhipjoint rhipjoint lowerback
    lhipjoint lfemur
    lfemur ltibia
    ltibia lfoot
    lfoot ltoes
    rhipjoint rfemur
    rfemur rtibia
    rtibia rfoot
    rfoot rtoes
    lowerback upperback
    upperback thorax
    thorax lowerneck lclavicle rclavicle
    lowerneck upperneck
    upperneck head
    lclavicle lhumerus
    lhumerus lradius
    lradius lwrist
    lwrist lhand lthumb
    lhand lfingers
    rclavicle rhumerus
    rhumerus rradius
    rradius rwrist
    rwrist rhand rthumb
    rhand rfingers
  end

#!OML:ASF F:\VICON\USERDATA\INSTALL\SteveWalk\SteveWalk.ASF
:FULLY-SPECIFIED
:DEGREES
97
root -0.41744 16.0334 -21.2101 17.5339 9.35682 4.17216
lowerback -14.1292 -4.61579 -4.13092
upperback -4.86492 -5.54568 0.552593
thorax 3.19028 -2.73543 1.9596
lowerneck -2.98453 -1.68284 0.0648298
upperneck 7.34324 -2.31672 0.77152
head 2.86013 -1.1242 0.157821
rclavicle -6.17164e-015 -1.15295e-014
rhumerus -89.1239 -34.0401 -8.73967
rradius 10.6889
rwrist 54.1252
rhand -10.128 -33.7858
rfingers 7.12502
rthumb 15.8604 296.844
lclavicle -6.17164e-015 -1.15295e-014
lhumerus -16.4315 -10.6639 82.825
lradius 49.8961
lwrist 12.541
lhand -23.219 -18.987
lfingers 7.12502
lthumb 3.23156 10.9683
rfemur -49.4218 -6.65632 17.7059
rtibia 15.2344
rfoot -11.128 1.64397
rtoes -18.3428
lfemur 0.228748 2.02355 -22.4182
ltibia 18.7782
lfoot -24.8698 -8.14491
ltoes -29.9275
98
root -0.412131 15.997 -20.9715 17.6946 8.67943 3.82392
lowerback -14.4895 -4.37014 -3.49078
upperback -4.9193 -5.29791 0.633384
thorax 3.26282 -2.61389 1.71036
lowerneck -2.93764 -1.61872 0.171064
upperneck 7.20042 -2.2174 0.524161
head 2.79779 -1.08088 0.0648216
rclavicle 9.02296e-015 -1.15295e-014
rhumerus -92.2803 -34.2387 -2.68595
rradius 10.4133
rwrist 59.3485
rhand -10.5667 -33.6297
rfingers 7.12502
rthumb 15.4379 296.967
lclavicle 9.02296e-015 -1.15295e-014
lhumerus -16.7401 -10.1301 82.7044
lradius 50.6924
lwrist 12.4011
lhand -23.1103 -19.1976
lfingers 7.12502
lthumb 3.3366 10.7561
rfemur -49.7685 -6.0077 18.0539
rtibia 16.2039
rfoot -11.5043 2.29728
rtoes -17.4721
lfemur 0.678098 1.58442 -22.1882
ltibia 19.282
lfoot -21.1847 -10.7714
ltoes -21.3199
99
root -0.410894 15.9568 -20.7204 17.6419 8.49037 3.54794
lowerback -14.8207 -4.29139 -2.94471
upperback -4.78615 -5.26232 0.734018
thorax 3.54176 -2.60047 1.48923
lowerneck -3.18605 -1.53467 0.317085
upperneck 7.15066 -2.09297 0.233069
head 2.82178 -1.02445 -0.0513752
rclavicle 2.01083e-014 1.05356e-014
rhumerus -93.9661 -34.438 0.585811
rradius 10.3551
rwrist 61.9714
rhand -11.0835 -33.8964
rfingers 7.12502
rthumb 14.94 296.662
lclavicle 2.01083e-014 1.05356e-014
lhumerus -16.8603 -9.68264 82.5756
lradius 51.3389
lwrist 12.4665
lhand -23.1991 -19.5039
lfingers 7.12502
lthumb 3.25079 10.4511
rfemur -50.051 -5.54291 18.3007
rtibia 17.9355
rfoot -12.0311 1.85919
rtoes -23.1327
lfemur 1.45699 0.899556 -21.7966
ltibia 19.6229
lfoot -19.9192 -11.5727
ltoes -18.1124
100
root -0.416794 15.9253 -20.46 17.4255 8.52941 3.35739
lowerback -14.8562 -4.31986 -2.5653
upperback -4.75654 -5.35988 0.872829
thorax 3.57738 -2.64922 1.40124
lowerneck -3.28067 -1.42744 0.258818
upperneck 7.25745 -1.93474 0.066951
head 2.87449 -0.952602 -0.0906795
rclavicle 6.4605e-016 1.59028e-014
rhumerus -95.0875 -34.3363 2.99686
rradius 10.3784
rwrist 63.6151
rhand -11.5013 -33.5592
rfingers 7.12502
rthumb 14.5375 296.97
lclavicle 6.4605e-016 1.59028e-014
lhumerus -17.406 -9.27966 82.5411
lradius 52.0272
lwrist 12.6647
lhand -23.368 -20.6207
lfingers 7.12502
lthumb 3.08773 9.33669
rfemur -50.1816 -5.26404 18.5632
rtibia 20.0797
rfoot -11.8974 1.02198
rtoes -29.9124
lfemur 2.4233 0.230235 -21.4077
ltibia 19.92
lfoot -21.4389 -8.4424
ltoes -34.2374
101
root -0.421469 15.9048 -20.1929 17.3133 8.38122 3.10153
lowerback -14.9694 -4.27494 -2.11532
upperback -4.81709 -5.37046 1.03791
thorax 3.55117 -2.65348 1.31622
lowerneck -3.44178 -1.33905 0.131645
upperneck 7.52345 -1.79579 -0.119769
head 2.99473 -0.893025 -0.126857
rclavicle 3.10539e-014 -8.34896e-015
rhumerus -95.3535 -34.143 3.99235
rradius 10.4261
rwrist 64.109
rhand -11.8823 -33.3552
rfingers 7.12502
rthumb 14.1704 297.148
lclavicle 3.10539e-014 -8.34896e-015
lhumerus -18.2085 -8.77153 82.5917
lradius 52.7329
lwrist 12.791
lhand -23.5145 -21.5242
lfingers 7.12502
lthumb 2.94623 8.43515
rfemur -50.4462 -5.29291 19.3138
rtibia 22.4103
rfoot -10.8313 0.82674
rtoes -34.8619
lfemur 3.31095 0.0154176 -21.0988
ltibia 20.1561
lfoot -21.71 -6.37794
ltoes -40.9245
102
root -0.427764 15.8925 -19.9317 17.3399 8.05025 3.00216
lowerback -15.1613 -4.17039 -1.82278
upperback -4.86702 -5.27446 1.1113
thorax 3.57869 -2.60536 1.23688
lowerneck -3.58946 -1.25804 0.185208
upperneck 7.62577 -1.6698 -0.395338
head 3.05476 -0.838666 -0.222263
rclavicle -1.64929e-014 -6.75868e-015
rhumerus -94.7543 -34.192 3.18619
rradius 10.5231
rwrist 63.1117
rhand -12.1514 -33.7942
rfingers 7.12502
rthumb 13.9111 296.691
lclavicle -1.64929e-014 -6.75868e-015
lhumerus -18.867 -8.3252 82.6177
lradius 53.2379
lwrist 13.0484
lhand -23.4508 -21.7569
lfingers 7.12502
lthumb 3.00772 8.20161
rfemur -50.8214 -4.97234 19.5576
rtibia 24.609
rfoot -8.95793 1.19291
rtoes -37.027
lfemur 3.84137 -0.0184084 -21.0576
ltibia 20.6591
lfoot -20.7803 -5.97017
ltoes -42.7007
103
root -0.438981 15.8982 -19.6792 17.4482 7.5588 2.7923
lowerback -15.3438 -4.01497 -1.48624
upperback -4.91556 -5.12124 1.2161
thorax 3.60038 -2.52906 1.17741
lowerneck -3.71689 -1.17515 0.315959
upperneck 7.61081 -1.54121 -0.735133
head 3.07057 -0.783425 -0.350865
rclavicle -6.2816e-014 -2.5842e-014
rhumerus -95.3062 -34.4761 4.43853
rradius 10.5321
rwrist 64.0537
rhand -12.4464 -34.0031
rfingers 7.12502
rthumb 13.6268 296.463
lclavicle -6.2816e-014 -2.5842e-014
lhumerus -19.4929 -7.87533 82.6144
lradius 53.6393
lwrist 13.4149
lhand -23.2215 -21.9336
lfingers 7.12502
lthumb 3.22917 8.02169
rfemur -51.2753 -3.85999 19.2734
rtibia 26.4604
rfoot -7.10448 1.63895
rtoes -36.3884
lfemur 3.7534 -0.188727 -20.9445
ltibia 21.8527
lfoot -18.3164 -7.78479
ltoes -40.295
